<svg xmlns="http://www.w3.org/2000/svg" viewBox="0 0 874.5806 484.0218"><defs><style>.a{fill:#56c4a5;}</style></defs><path class="a" d="M594.0537,297.066,533.7169,401.5722a51.8319,51.8319,0,0,0,0,51.8317L594.0537,557.91a51.8316,51.8316,0,0,0,44.8875,25.9158h30.25l-90.2618-156.338L669.1907,271.15H638.9413A51.8314,51.8314,0,0,0,594.0537,297.066Z" transform="translate(-526.7728 -271.1501)"/><polygon class="a" points="202.593 0 112.331 156.338 202.592 312.676 262.767 312.676 172.505 156.338 262.767 0 202.593 0"/><polygon class="a" points="322.942 0 232.68 156.338 322.942 312.676 383.116 312.676 292.854 156.338 383.116 0 322.942 0"/><rect class="a" x="421.2668" y="0.0001" width="52.1111" height="312.676"/><polygon class="a" points="503.465 0 473.378 0 473.378 52.113 533.552 156.338 473.378 260.563 473.378 312.676 503.465 312.676 593.727 156.338 503.465 0"/><polygon class="a" points="563.64 0 653.902 156.338 563.64 312.676 683.989 312.676 714.076 260.563 653.902 260.563 714.076 156.338 653.902 52.113 714.076 52.113 683.989 0 563.64 0"/><path class="a" d="M1258.9353,271.15l90.2619,156.3382-90.2618,156.3379h30.2494a51.8316,51.8316,0,0,0,44.8875-25.9158l60.337-104.5064a51.8321,51.8321,0,0,0,0-51.8318l-60.3367-104.5063A51.8317,51.8317,0,0,0,1289.185,271.15Z" transform="translate(-526.7728 -271.1501)"/><path class="a" d="M614.707,755.1719q-16.8,0-26.56-8.5606-9.7617-8.5576-10.08-23.28h12.8q0,9.4438,6.32,14.9609,6.3186,5.52,17.52,5.5195,10.56,0,16.56-5.28t6-14.5595a22.1023,22.1023,0,0,0-4.16-13.28,21.4689,21.4689,0,0,0-11.68-8l-15.2-4.8q-12-3.5171-18.48-12.08a32.3276,32.3276,0,0,1-6.48-20.08q0-13.92,9.2-22.32t24.56-8.3994q15.1985,0,24.24,8.56,9.0374,8.562,9.2,22.6406h-12.64q0-9.12-5.52-14.4t-15.44-5.28q-9.7609,0-15.28,4.8t-5.52,13.28a21.675,21.675,0,0,0,4.08,13.12,22.1907,22.1907,0,0,0,11.76,8l15.2,4.8q11.8389,3.6827,18.4,12.4805a33.586,33.586,0,0,1,6.56,20.64,30.8545,30.8545,0,0,1-4.4,16.5605,29.507,29.507,0,0,1-12.32,11.04A41.579,41.579,0,0,1,614.707,755.1719Z" transform="translate(-526.7728 -271.1501)"/><path class="a" d="M757.7456,753.5713v-116.8h12.64v50.56h39.36v-50.56h12.64v116.8h-12.64v-54.56h-39.36v54.56Z" transform="translate(-526.7728 -271.1501)"/><path class="a" d="M934.8638,753.5713v-116.8h65.92V648.292h-53.28v38.56h47.6807v11.36H947.5039v43.84h53.28v11.5195Z" transform="translate(-526.7728 -271.1501)"/><path class="a" d="M1112.623,753.5713v-116.8h12.8v105.28h53.76v11.5195Z" transform="translate(-526.7728 -271.1501)"/><path class="a" d="M1286.0605,753.5713v-116.8h68V648.292h-55.52v40.96H1349.58v11.5195h-50.72v52.8Z" transform="translate(-526.7728 -271.1501)"/></svg>