<svg xmlns="http://www.w3.org/2000/svg" viewBox="0 0 1024 1024"><defs><style>.a{fill:#303846;}.b{fill:#48545b;}.c{fill:#404c4f;}.d{fill:#4be05c;}.e{fill:#edd25f;}.f{fill:#ef6f6f;}.g{fill:#ff5a5a;}.h{fill:none;stroke:#8c6239;stroke-miterlimit:10;stroke-width:16px;}.i{fill:#8df7da;}</style></defs><path class="a" d="M499.7826,0C223.76,0,0,229.23,0,512,0,647.285,51.2219,770.3105,134.8758,861.8461l732.0788-2.497C949.2664,768.079,999.5652,646.0591,999.5652,512,999.5652,229.23,775.8049,0,499.7826,0Z"/><path class="b" d="M866.9546,859.3491c-92.0413-9.7469-217.1358-15.74-354.9546-15.74-149.2294,0-283.5409,7.0269-377.1242,18.2374C51.1313,871.8779,0,885.26,0,899.9565c0,19.9734,94.43,37.5192,236.8339,47.5262,79.4719,5.5846,173.8832,8.8216,275.1661,8.8216,89.934,0,174.4483-2.5527,247.8986-7.0343C917.39,939.66,1024,921.1789,1024,899.9565,1024,884.004,963.759,869.6005,866.9546,859.3491Z"/><ellipse class="c" cx="221.8261" cy="900.5882" rx="138.913" ry="18.7826"/><ellipse class="c" cx="512" cy="900.5882" rx="138.913" ry="18.7826"/><ellipse class="c" cx="802.1739" cy="900.5882" rx="138.913" ry="18.7826"/><rect class="d" x="116.7647" y="721.7647" width="204.7059" height="178.8235"/><rect class="e" x="409.6471" y="537.0588" width="204.7059" height="363.5294"/><rect class="f" x="702.5294" y="252.3529" width="204.7059" height="648.2353"/><path class="g" d="M999.5652,100.913S941.199,97.8364,921.087,54.7391C904.6522,19.5217,862.4861.7713,804.8824,0V75.6087s54.6777-17.44,88.8133,16.6956C921.3478,119.9565,999.5652,100.913,999.5652,100.913Z"/><line class="h" x1="804.8824" x2="804.8824" y2="252.3529"/><path class="i" d="M52.6038,590.2813A760.9181,760.9181,0,0,0,137.81,567.098a697.9107,697.9107,0,0,0,81.0249-33.1459,671.1248,671.1248,0,0,0,144.2378-95.095l16.0556-14.3092c5.19-4.9469,10.44-9.8134,15.57-14.8l7.5521-7.6309,3.7741-3.81c1.2562-1.2711,2.5306-2.5223,3.7238-3.8581,4.8275-5.2838,9.7576-10.4536,14.4317-15.86,18.7564-21.5894,35.5253-44.7547,51.2449-68.4228,15.78-23.6407,31.0515-47.4672,46.2611-71.5386,15.2239-24.0666,29.76-48.7414,43.8332-74.0043l.0853-.1532a24.0313,24.0313,0,0,1,43.9184,18.9032,544.7477,544.7477,0,0,1-35.0341,85.2845,442.1748,442.1748,0,0,1-50.74,77.382c-19.61,23.93-41.15,46.1592-63.5054,67.2778-1.3622,1.3539-2.78,2.6544-4.2078,3.9437l-4.251,3.8972-8.46,7.82c-5.7086,5.1368-11.5569,10.1192-17.3228,15.1719-5.8794,4.9307-11.8729,9.724-17.7974,14.5785-6.0529,4.7059-12.1738,9.32-18.2766,13.9371A638.549,638.549,0,0,1,229.19,558.4563a647.7863,647.7863,0,0,1-86.9075,24.9745A656.6187,656.6187,0,0,1,53.4452,596.222a3.0067,3.0067,0,0,1-.8479-5.94Z"/><polygon class="i" points="661.986 227.962 628.772 51.575 492.607 168.514 661.986 227.962"/></svg>