<svg xmlns="http://www.w3.org/2000/svg" viewBox="0 0 1024 1024"><defs><style>.a{fill:#303846;}.b{fill:#48545b;}.c{fill:#404c4f;}.d{fill:#8df7da;}.e{fill:#4be05c;}.f{fill:#ef6f6f;}.g{fill:#edd25f;}.h{fill:#54c6a0;}</style></defs><path class="a" d="M244.6681,189.3478c-109.0948,0-197.5336,90.6008-197.5336,202.3625a204.34,204.34,0,0,0,53.3082,138.2728l289.3462-.9869A204.361,204.361,0,0,0,442.2018,391.71C442.2018,279.9486,353.7629,189.3478,244.6681,189.3478Z"/><path class="b" d="M384.2689,522.5554c-34.9946-3.7058-82.5562-5.9846-134.9557-5.9846-56.7378,0-107.8038,2.6717-143.3847,6.934-31.84,3.8142-51.28,8.902-51.28,14.49,0,7.594,35.9028,14.265,90.0456,18.07,30.2156,2.1233,66.1113,3.354,104.62,3.354,34.1935,0,66.3263-.9705,94.2525-2.6745,59.8791-3.6536,100.4128-10.68,100.4128-18.7492C443.9785,531.9294,421.0745,526.4531,384.2689,522.5554Z"/><path class="a" d="M745.1993,435.1057c-150.3031,0-272.1478,124.8233-272.1478,278.8006a281.5251,281.5251,0,0,0,73.4442,190.5026l398.6407-1.36a281.5537,281.5537,0,0,0,72.2108-189.1429C1017.3472,559.929,895.5025,435.1057,745.1993,435.1057Z"/><path class="b" d="M938.4837,903.0492c-50.12-5.3075-118.2375-8.5711-193.2844-8.5711-81.26,0-154.3972,3.8264-205.3563,9.9308-45.6017,5.4627-73.4443,12.75-73.4443,20.7524,0,10.8762,51.42,20.43,128.9638,25.88,43.275,3.041,94.685,4.8037,149.8368,4.8037,48.972,0,94.9928-1.39,134.9889-3.83C965.9475,946.7813,1024,936.7176,1024,925.1613,1024,916.4746,991.1968,908.6315,938.4837,903.0492Z"/><ellipse class="c" cx="246.178" cy="536.0632" rx="166.4741" ry="8.5889"/><ellipse class="c" cx="745.1993" cy="923.2184" rx="238.587" ry="10.9565"/><rect class="d" x="105.8816" y="328.6598" width="276.1391" height="36.4706" rx="12"/><rect class="d" x="105.8816" y="276.1137" width="93.2358" height="36.4706" rx="12"/><rect class="e" x="210.7512" y="276.1137" width="171.2695" height="36.4706" rx="12"/><rect class="d" x="284.6826" y="381.206" width="97.338" height="36.4706" rx="12"/><rect class="f" x="105.8816" y="381.206" width="166.2793" height="36.4706" rx="12"/><rect class="d" x="105.8816" y="433.7522" width="125.7191" height="36.4706" rx="12"/><rect class="g" x="243.9511" y="433.7522" width="138.0695" height="36.4706" rx="12"/><path class="d" d="M115.5,514.1682q-26.4024,0-41.55-13.05-15.1524-13.05-13.95-36.75l3-49.2q.8994-15.8979-4.8-22.95-5.7027-7.0458-25.2-7.05H0v-24H33q19.497,0,25.2-7.05,5.6953-7.0458,4.8-22.95l-3-49.2q-1.2027-23.6952,13.95-36.75,15.145-13.05,41.55-13.05H129v24H115.5q-14.105,0-21.6,6.45-7.503,6.4542-6.9,19.35l3,49.2q.8994,17.1-7.05,28.2Q74.9975,370.47,60,373.1682q14.6953,2.7,22.8,13.8Q90.9,398.07,90,415.1682l-3,49.2q-.605,12.9024,6.9,19.35,7.4942,6.4484,21.6,6.45H129v24Z"/><path class="d" d="M359.9941,514.1682v-24h13.5q14.0978,0,21.6-6.45,7.4955-6.4482,6.9-19.35l-3-49.2q-.8994-17.1006,7.2-28.2,8.0992-11.0948,22.8-13.8-15.0044-2.7-22.95-13.8-7.9525-11.0961-7.05-28.2l3-49.2q.5978-12.8951-6.9-19.35-7.5015-6.4482-21.6-6.45h-13.5v-24h13.5q26.6984,0,41.85,13.05,15.1464,13.05,13.65,36.75l-3,49.2q-.8994,15.9047,4.8,22.95,5.6953,7.0518,25.2,7.05h33v24h-33q-19.2025,0-25.05,7.05-5.8506,7.0518-4.95,22.95l3,49.2q1.4972,23.7012-13.65,36.75-15.1524,13.0488-41.85,13.05Z"/><rect class="e" x="525.6215" y="730.913" width="192.3053" height="192.3053"/><rect class="f" x="672.2524" y="538.6077" width="192.3053" height="192.3053"/><rect class="g" x="768.4051" y="730.913" width="192.3053" height="192.3053"/><path class="h" d="M249.3132,212.0435a285.4028,285.4028,0,0,1,119.2255-68.7284,264.9245,264.9245,0,0,1,71.3225-9.9012,257.7991,257.7991,0,0,1,72.5209,10.5491,272.096,272.096,0,0,1,66.9933,30.21A294.3472,294.3472,0,0,1,635.79,220.1893a317.1258,317.1258,0,0,1,43.373,57.1028,338.11,338.11,0,0,1,29.5247,64.0642l-37.08,16.7838c-21.4877-36.4165-46.8908-69.3975-76.5481-96.7319-29.609-27.3272-63.4367-48.86-100.4963-62.2076a271.73,271.73,0,0,0-57.6851-13.91,307.7365,307.7365,0,0,0-60.96-1.45,399.6942,399.6942,0,0,0-62.6949,9.9274C292.1324,198.68,271.0384,205.1872,249.3132,212.0435Z"/><polygon class="h" points="593.734 351.747 725.043 474.112 765.384 299.218 593.734 351.747"/></svg>