<svg xmlns="http://www.w3.org/2000/svg" viewBox="0 0 1024.001 1024"><path d="M971.844,737.38A509.9084,509.9084,0,0,0,1024,512C1024,229.23,794.77,0,512,0S0,229.23,0,512A509.9084,509.9084,0,0,0,52.156,737.38Z" transform="translate(0.0005)" fill="#303846"/><path d="M1024,737.38c0,23.34-229.23,42.26-512,42.26S0,760.72,0,737.38c0-5.26,11.63-10.29,32.89-14.93,73.09-15.97,260.03-27.33,479.11-27.33s406.02,11.36,479.11,27.33C1012.37,727.09,1024,732.12,1024,737.38Z" transform="translate(0.0005)" fill="#48545b"/><path d="M991.11,722.45C980.63,745.41,770.13,763.74,512,763.74S43.37,745.41,32.89,722.45c73.09-15.97,260.03-27.33,479.11-27.33S918.02,706.48,991.11,722.45Z" transform="translate(0.0005)" fill="#414c51"/><path d="M36.9323,701.5226c0,19.7222,20.0419,35.8585,44.5376,35.8585H942.53c24.4958,0,44.5376-16.1363,44.5376-35.8585V217.913H36.9323Z" transform="translate(0.0005)" fill="#425666"/><path d="M942.53,129.2876H81.47a44.6685,44.6685,0,0,0-44.5376,44.5376v47.644H987.0677v-47.644A44.6685,44.6685,0,0,0,942.53,129.2876Z" transform="translate(0.0005)" fill="#3b4959"/><circle cx="114.023" cy="174.2892" r="21.23" fill="#425666"/><circle cx="184.7896" cy="174.2892" r="21.23" fill="#425666"/><circle cx="255.5563" cy="175.3784" r="21.23" fill="#425666"/><ellipse cx="661.6386" cy="998.6288" rx="239.3414" ry="25.3712" fill="#48545b"/><ellipse cx="655.6914" cy="998.0454" rx="137.3478" ry="9.3913" fill="#414c51"/><rect x="92.793" y="262.6784" width="405.1953" height="57.3664" rx="12" fill="#83e2c2"/><rect x="92.793" y="564.2155" width="844.5335" height="34.8555" rx="12" fill="#83e2c2"/><rect x="92.793" y="628.4804" width="844.5335" height="34.8555" rx="12" fill="#83e2c2"/><rect x="92.793" y="359.4394" width="844.5335" height="175.3668" rx="12" fill="#83e2c2"/><polygon points="546.386 447.123 499.398 417.169 499.398 477.077 546.386 447.123" fill="#5fa387"/><path d="M884.6368,708.6865l-74,69.3a154.4892,154.4892,0,0,1-150.13,140.59q-.735.03-1.47.03c-.75.01-1.51.02-2.27.02a154.475,154.475,0,1,1,94.42-276.76l58.88-55.14a233.5366,233.5366,0,0,0-153.3-57.05c-129.49,0-234.47,104.98-234.47,234.48,0,129.49,104.98,234.47,234.47,234.47,129.5,0,234.48-104.98,234.48-234.47A234.7179,234.7179,0,0,0,884.6368,708.6865Zm-23.73-59.97q-5.04-8.895-10.81-17.28a235.491,235.491,0,0,0-18.62-23.67l-58.41,54.7a154.6241,154.6241,0,0,1,17.63,24.59,151.0879,151.0879,0,0,1,9.21,18.78,152.84,152.84,0,0,1,9.2,32.48l65.43-61.27a232.8909,232.8909,0,0,0-13.63-28.33Z" transform="translate(0.0005)" fill="#4be05c"/><rect x="581.9933" y="676.7148" width="79.9999" height="199.8506" transform="translate(-362.8696 634.9023) rotate(-43.12)" fill="#4be05c"/><polygon points="1007.738 552.317 874.538 677.046 809.108 738.317 661.098 876.916 606.418 818.527 773.068 662.467 831.478 607.767 953.058 493.916 1007.738 552.317" fill="#4be05c"/></svg>